
<svg width="36" height="36" viewBox="0 0 36 36" fill="none" xmlns="http://www.w3.org/2000/svg">
  <rect width="36" height="36" rx="18" fill="#001F3F"/>
  <path d="M28 18C28 20.5 24 25 14 25C6 25 4 18 4 18C4 18 6 11 14 11C24 11 28 15.5 28 18Z" stroke="#FFD700" strokeWidth="2" strokeLinecap="round" />
  <circle cx="9" cy="18" r="2" fill="#FFD700" />
  <path d="M18 13C18 13 21 15 21 18C21 21 18 23 18 23" stroke="#FFD700" strokeWidth="2" strokeLinecap="round" />
  <path d="M30 18C30 18 28 14 26 12" stroke="#FFD700" strokeWidth="1.5" strokeLinecap="round" />
  <path d="M30 18C30 18 28 22 26 24" stroke="#FFD700" strokeWidth="1.5" strokeLinecap="round" />
</svg>
